<svg version="1.1" id="Layer_1" xmlns="http://www.w3.org/2000/svg" xmlns:xlink="http://www.w3.org/1999/xlink" x="0px" y="0px"
	 width="100%" viewBox="0 0 2560 2560" enable-background="new 0 0 2560 2560" xml:space="preserve">
<path fill="#000000" opacity="1.000000" stroke="none" 
	d="
M1418.000000,2562.000000 
	C945.333313,2562.000000 473.666656,2562.000000 2.000000,2562.000000 
	C2.000000,1708.666626 2.000000,855.333313 2.000000,2.000000 
	C855.333313,2.000000 1708.666626,2.000000 2562.000000,2.000000 
	C2562.000000,855.333313 2562.000000,1708.666626 2562.000000,2562.000000 
	C2181.000000,2562.000000 1800.000000,2562.000000 1418.000000,2562.000000 
M670.075439,1860.885132 
	C697.783142,1889.237305 726.629028,1916.311523 757.714966,1941.002686 
	C800.875183,1975.284790 846.845276,2005.214478 895.691223,2030.644409 
	C941.276550,2054.376709 988.734558,2073.754150 1038.076782,2088.171387 
	C1061.358154,2094.974121 1084.903931,2101.147217 1108.662231,2105.967773 
	C1134.013550,2111.112061 1159.679321,2114.936523 1185.353271,2118.189697 
	C1207.057251,2120.939941 1228.940063,2123.012451 1250.795410,2123.673096 
	C1288.701660,2124.819580 1326.649292,2124.965576 1364.420776,2120.166504 
	C1378.910645,2118.325439 1393.657593,2118.024658 1407.962280,2115.309082 
	C1438.961060,2109.423828 1470.009277,2103.452393 1500.569702,2095.678711 
	C1560.148315,2080.523926 1617.027710,2058.096924 1671.503418,2029.455078 
	C1706.643188,2010.979614 1740.468140,1990.498901 1772.843872,1967.540405 
	C1808.209229,1942.461426 1840.789917,1914.065674 1872.268311,1884.378418 
	C1881.448730,1875.720459 1889.947388,1866.288940 1898.276855,1856.789551 
	C1915.593994,1837.040405 1933.314209,1817.580322 1949.562256,1796.971436 
	C1981.592163,1756.345459 2009.443604,1712.860352 2032.509277,1666.544434 
	C2045.407349,1640.645020 2057.193848,1614.120728 2068.092285,1587.313477 
	C2084.666748,1546.545654 2097.193848,1504.436401 2106.175293,1461.309204 
	C2112.341553,1431.699463 2117.295898,1401.942017 2120.424072,1371.809937 
	C2123.584229,1341.367065 2125.251465,1310.889404 2125.768066,1280.334595 
	C2125.930176,1270.739624 2124.206543,1261.120117 2124.232422,1251.514160 
	C2124.287109,1231.189697 2122.956055,1210.995117 2120.142578,1190.883789 
	C2117.107422,1169.186890 2114.688721,1147.379395 2110.854248,1125.824097 
	C2103.031738,1081.851196 2091.548340,1038.766968 2075.897461,996.920532 
	C2067.158447,973.554993 2057.937988,950.304565 2047.565063,927.628540 
	C2025.485596,879.360962 1998.699463,833.737427 1967.770142,790.558472 
	C1946.037598,760.218628 1922.407593,731.402771 1896.835571,704.288208 
	C1876.518799,682.746033 1855.062134,662.326050 1832.497070,643.022217 
	C1807.418945,621.568665 1781.431274,601.400574 1754.114014,582.953491 
	C1713.740356,555.689270 1671.291748,532.158813 1626.800049,512.216431 
	C1585.064819,493.509674 1542.128662,478.195587 1497.964844,466.609619 
	C1461.646729,457.081879 1424.813232,449.800507 1387.386963,445.647034 
	C1359.291870,442.529083 1331.247192,439.509644 1302.918457,440.067871 
	C1288.924438,440.343658 1274.916626,440.320251 1260.921509,440.071045 
	C1233.262451,439.578522 1205.857666,442.340149 1178.467163,445.738220 
	C1140.150391,450.491882 1102.395386,457.880829 1065.026733,467.666199 
	C1016.866028,480.277649 970.444824,497.570465 925.396851,518.503967 
	C888.510254,535.644958 853.261169,555.836426 819.309021,578.308289 
	C770.845276,610.384888 726.035095,646.908020 685.164978,688.185303 
	C671.369202,702.118469 657.897766,716.484009 645.453979,731.618774 
	C626.241333,754.985962 607.165649,778.560608 589.601685,803.167786 
	C557.966553,847.488647 532.300293,895.321106 510.366272,945.136353 
	C492.893768,984.818787 478.587860,1025.617188 467.702393,1067.606079 
	C460.020142,1097.239014 453.879303,1127.150757 449.478485,1157.473145 
	C445.033173,1188.102295 441.311523,1218.715942 441.842255,1249.745850 
	C442.144318,1267.406616 442.250153,1285.085693 441.818481,1302.741211 
	C440.937500,1338.774170 444.326935,1374.439697 449.809448,1409.988281 
	C456.310547,1452.140869 465.577911,1493.652100 478.487793,1534.305054 
	C493.936401,1582.952148 512.678650,1630.271851 537.536255,1674.949951 
	C549.991394,1697.336304 562.728333,1719.608398 576.365356,1741.285767 
	C603.200684,1783.943237 635.070496,1822.768066 670.075439,1860.885132 
z"/>
<path fill="#022B4A" opacity="1.000000" stroke="none" 
	d="
M669.572632,1860.382202 
	C635.070496,1822.768066 603.200684,1783.943237 576.365356,1741.285767 
	C562.728333,1719.608398 549.991394,1697.336304 537.536255,1674.949951 
	C512.678650,1630.271851 493.936401,1582.952148 478.487793,1534.305054 
	C465.577911,1493.652100 456.310547,1452.140869 449.809448,1409.988281 
	C444.326935,1374.439697 440.937500,1338.774170 441.818481,1302.741211 
	C442.250153,1285.085693 442.144318,1267.406616 441.842255,1249.745850 
	C441.311523,1218.715942 445.033173,1188.102295 449.478485,1157.473145 
	C453.879303,1127.150757 460.020142,1097.239014 467.702393,1067.606079 
	C478.587860,1025.617188 492.893768,984.818787 510.366272,945.136353 
	C532.300293,895.321106 557.966553,847.488647 589.601685,803.167786 
	C607.165649,778.560608 626.241333,754.985962 645.453979,731.618774 
	C657.897766,716.484009 671.369202,702.118469 685.164978,688.185303 
	C726.035095,646.908020 770.845276,610.384888 819.309021,578.308289 
	C853.261169,555.836426 888.510254,535.644958 925.396851,518.503967 
	C970.444824,497.570465 1016.866028,480.277649 1065.026733,467.666199 
	C1102.395386,457.880829 1140.150391,450.491882 1178.467163,445.738220 
	C1205.857666,442.340149 1233.262451,439.578522 1260.921509,440.071045 
	C1274.916626,440.320251 1288.924438,440.343658 1302.918457,440.067871 
	C1331.247192,439.509644 1359.291870,442.529083 1387.386963,445.647034 
	C1424.813232,449.800507 1461.646729,457.081879 1497.964844,466.609619 
	C1542.128662,478.195587 1585.064819,493.509674 1626.800049,512.216431 
	C1671.291748,532.158813 1713.740356,555.689270 1754.114014,582.953491 
	C1781.431274,601.400574 1807.418945,621.568665 1832.497070,643.022217 
	C1855.062134,662.326050 1876.518799,682.746033 1896.835571,704.288208 
	C1922.407593,731.402771 1946.037598,760.218628 1967.770142,790.558472 
	C1998.699463,833.737427 2025.485596,879.360962 2047.565063,927.628540 
	C2057.937988,950.304565 2067.158447,973.554993 2075.897461,996.920532 
	C2091.548340,1038.766968 2103.031738,1081.851196 2110.854248,1125.824097 
	C2114.688721,1147.379395 2117.107422,1169.186890 2120.142578,1190.883789 
	C2122.956055,1210.995117 2124.287109,1231.189697 2124.232422,1251.514160 
	C2124.206543,1261.120117 2125.930176,1270.739624 2125.768066,1280.334595 
	C2125.251465,1310.889404 2123.584229,1341.367065 2120.424072,1371.809937 
	C2117.295898,1401.942017 2112.341553,1431.699463 2106.175293,1461.309204 
	C2097.193848,1504.436401 2084.666748,1546.545654 2068.092285,1587.313477 
	C2057.193848,1614.120728 2045.407349,1640.645020 2032.509277,1666.544434 
	C2009.443604,1712.860352 1981.592163,1756.345459 1949.562256,1796.971436 
	C1933.314209,1817.580322 1915.593994,1837.040405 1898.276855,1856.789551 
	C1889.947388,1866.288940 1881.448730,1875.720459 1872.268311,1884.378418 
	C1840.789917,1914.065674 1808.209229,1942.461426 1772.843872,1967.540405 
	C1740.468140,1990.498901 1706.643188,2010.979614 1671.503418,2029.455078 
	C1617.027710,2058.096924 1560.148315,2080.523926 1500.569702,2095.678711 
	C1470.009277,2103.452393 1438.961060,2109.423828 1407.962280,2115.309082 
	C1393.657593,2118.024658 1378.910645,2118.325439 1364.420776,2120.166504 
	C1326.649292,2124.965576 1288.701660,2124.819580 1250.795410,2123.673096 
	C1228.940063,2123.012451 1207.057251,2120.939941 1185.353271,2118.189697 
	C1159.679321,2114.936523 1134.013550,2111.112061 1108.662231,2105.967773 
	C1084.903931,2101.147217 1061.358154,2094.974121 1038.076782,2088.171387 
	C988.734558,2073.754150 941.276550,2054.376709 895.691223,2030.644409 
	C846.845276,2005.214478 800.875183,1975.284790 757.714966,1941.002686 
	C726.629028,1916.311523 697.783142,1889.237305 669.572632,1860.382202 
M975.363342,1434.078003 
	C982.665100,1428.834106 990.224426,1423.910156 997.214966,1418.279785 
	C1011.742615,1406.579102 1025.945435,1394.475830 1040.323364,1382.588135 
	C1074.041748,1354.709595 1112.845581,1338.209106 1155.954712,1332.006958 
	C1200.217896,1325.638672 1244.780273,1323.395874 1289.493042,1323.873047 
	C1304.147949,1324.029419 1318.818237,1324.076416 1333.461182,1323.575317 
	C1345.580322,1323.160522 1357.149780,1320.182129 1367.552124,1313.512573 
	C1380.800293,1305.018433 1381.978516,1300.031128 1376.994385,1285.235229 
	C1369.673218,1263.501465 1362.639771,1241.627441 1356.729370,1219.480713 
	C1353.849243,1208.688477 1352.526245,1197.114502 1352.787354,1185.947876 
	C1353.078125,1173.510254 1361.933105,1169.969238 1372.057617,1177.153564 
	C1375.552979,1179.633911 1378.631104,1182.776489 1381.609863,1185.893677 
	C1386.673096,1191.192383 1391.571777,1196.652832 1396.420532,1202.150391 
	C1403.537842,1210.219849 1412.593384,1213.716553 1423.124390,1213.206299 
	C1430.431519,1212.852051 1437.711792,1211.883179 1444.994263,1211.097046 
	C1454.072388,1210.116943 1461.308594,1205.647949 1467.285522,1198.964600 
	C1471.505127,1194.246460 1475.360474,1189.168335 1479.870972,1184.754272 
	C1484.361084,1180.359985 1489.066650,1175.932983 1494.398071,1172.713013 
	C1501.725098,1168.287842 1507.267090,1170.916626 1509.299683,1179.267090 
	C1510.311279,1183.422241 1510.570923,1187.863159 1510.499023,1192.163574 
	C1509.849365,1230.983765 1501.104736,1267.937378 1484.925903,1303.225342 
	C1482.481812,1308.556274 1480.501831,1314.424316 1479.899536,1320.209839 
	C1478.521851,1333.444702 1477.592407,1346.776245 1477.445190,1360.079224 
	C1477.103882,1390.949341 1472.553833,1421.056763 1463.204224,1450.490967 
	C1461.717651,1455.170898 1460.997681,1460.281982 1460.959717,1465.201660 
	C1460.809326,1484.696411 1458.372192,1503.709839 1450.799438,1521.850098 
	C1449.904663,1523.993652 1449.546265,1526.366455 1448.603027,1528.483154 
	C1443.606689,1539.695312 1444.347534,1550.691040 1447.752930,1562.390991 
	C1453.408203,1581.821167 1460.136230,1601.111938 1459.984863,1621.843018 
	C1459.937988,1628.256714 1463.261719,1633.649536 1469.832764,1635.479370 
	C1484.788452,1639.644043 1499.980835,1641.206177 1515.220703,1637.042603 
	C1523.497925,1634.781250 1525.613770,1630.208862 1521.396118,1622.872559 
	C1518.099609,1617.138428 1513.866089,1611.902588 1509.721191,1606.706787 
	C1504.282593,1599.889282 1498.883789,1593.018188 1497.154419,1584.270874 
	C1492.720215,1561.839722 1491.756226,1539.838013 1498.830078,1517.245239 
	C1512.065063,1474.975220 1523.585815,1432.214966 1525.718628,1387.488281 
	C1526.201050,1377.370728 1529.524048,1367.308350 1532.174072,1357.390015 
	C1538.723755,1332.874268 1545.074829,1308.263672 1543.592651,1282.656372 
	C1541.981323,1254.816772 1545.202759,1227.483643 1549.726196,1200.151733 
	C1551.908081,1186.967285 1557.102905,1175.792847 1566.296875,1165.762451 
	C1580.498901,1150.267944 1593.095459,1148.617554 1609.792480,1156.719116 
	C1630.749146,1166.887817 1652.349854,1175.721558 1673.555298,1185.388794 
	C1683.849487,1190.081665 1692.806152,1188.791138 1702.775757,1183.269165 
	C1715.857300,1176.023682 1726.940918,1165.759399 1741.030640,1159.968018 
	C1750.544067,1156.057617 1751.956299,1149.149780 1748.024048,1139.223877 
	C1747.043579,1136.749146 1745.829102,1134.367188 1744.850952,1131.891724 
	C1737.594238,1113.528809 1724.364014,1099.123901 1711.967285,1084.472656 
	C1697.568359,1067.455078 1685.668213,1049.407104 1678.894653,1028.122681 
	C1676.782471,1021.485901 1672.622314,1016.449036 1666.798462,1012.750488 
	C1656.978149,1006.514160 1647.307373,1000.015442 1637.247437,994.190735 
	C1627.065430,988.295288 1625.476196,986.298523 1627.680542,974.304993 
	C1630.447266,959.252502 1633.801025,944.307800 1636.912354,929.318848 
	C1638.609863,921.140869 1640.329590,912.967407 1642.039307,904.791931 
	C1632.853882,908.962219 1627.617065,915.886658 1623.663208,923.427979 
	C1616.219482,937.626160 1605.072266,948.507263 1593.615845,959.190735 
	C1591.326172,961.325928 1588.313599,962.685608 1585.681885,964.372437 
	C1579.493896,958.186584 1581.773804,951.721313 1582.586304,945.696838 
	C1584.544189,931.180237 1586.976685,916.728210 1589.042114,902.225098 
	C1589.703491,897.581848 1590.049683,892.759033 1583.137451,890.202942 
	C1581.039795,892.690674 1578.473145,895.180603 1576.562012,898.099792 
	C1569.447144,908.967224 1562.044434,919.693665 1555.704224,931.007935 
	C1548.892700,943.162964 1542.981445,955.837158 1536.994995,968.435791 
	C1530.250366,982.630005 1522.849243,995.921143 1510.287964,1006.365906 
	C1476.440186,1034.510376 1444.342529,1064.554321 1415.494507,1097.950928 
	C1407.446045,1107.268188 1398.674805,1115.990356 1389.862549,1124.604248 
	C1386.365967,1128.022217 1382.241211,1131.512085 1377.744263,1133.074097 
	C1352.242188,1141.932373 1326.556274,1150.223389 1299.070435,1150.135986 
	C1255.419189,1149.997192 1211.766235,1150.131470 1168.117310,1149.759033 
	C1155.864746,1149.654419 1144.367310,1151.850708 1133.118408,1156.505615 
	C1111.882935,1165.293213 1090.531860,1173.751953 1071.532227,1187.092285 
	C1062.668213,1193.316162 1052.572998,1197.135132 1041.768555,1197.836426 
	C1006.849121,1200.102661 971.902771,1202.301147 937.135620,1195.757080 
	C932.236267,1194.834839 927.247925,1194.281006 922.274414,1193.900146 
	C919.662781,1193.700195 916.757202,1193.649780 914.404480,1194.586670 
	C910.465149,1196.155273 905.689453,1197.988525 906.027954,1203.262085 
	C906.330383,1207.974121 911.190247,1207.954346 914.508484,1208.775757 
	C951.974426,1218.050293 988.867249,1229.882446 1027.475952,1234.121460 
	C1031.502075,1234.563599 1035.383057,1236.328125 1039.725342,1237.593750 
	C1038.156982,1242.008423 1037.203369,1245.194702 1035.916016,1248.239990 
	C1019.715698,1286.561401 1003.761658,1324.991699 987.059937,1363.093994 
	C981.710388,1375.298096 978.675110,1387.367432 979.423340,1400.732544 
	C979.996704,1410.973389 980.019958,1421.433960 974.421814,1430.865723 
	C973.822266,1431.875977 974.813599,1433.830566 974.345886,1435.163696 
	C974.547668,1435.253540 974.749451,1435.343506 975.363342,1434.078003 
M1086.739014,1969.901611 
	C1305.054565,2031.747070 1536.178223,1987.836060 1713.962646,1853.036743 
	C1929.606201,1689.531494 2001.616821,1450.183838 1996.526733,1280.417603 
	C1990.051758,1280.417603 1983.566528,1280.417603 1976.422363,1280.417603 
	C1976.276978,1283.455322 1976.140625,1286.037842 1976.031860,1288.621338 
	C1975.415649,1303.261353 1975.083862,1317.919434 1974.144653,1332.538696 
	C1970.475830,1389.654785 1959.538696,1445.351562 1941.529907,1499.705688 
	C1903.186523,1615.433350 1838.831665,1714.333008 1748.856689,1796.377930 
	C1678.785034,1860.274170 1598.528198,1907.222656 1508.842529,1938.275269 
	C1437.325562,1963.037354 1363.781860,1975.317139 1288.238770,1975.795898 
	C1268.605225,1975.920410 1248.921875,1975.072876 1229.331421,1973.683350 
	C1188.375610,1970.778198 1147.935547,1964.272583 1108.253418,1953.629028 
	C1046.176636,1936.978271 987.244934,1912.749878 931.782471,1880.102051 
	C860.351929,1838.054443 798.706116,1784.570190 746.327026,1720.567871 
	C691.978882,1654.158813 651.599670,1579.923950 624.963379,1498.245850 
	C608.371155,1447.367310 597.573425,1395.362061 593.673767,1341.981079 
	C592.411743,1324.706787 591.836548,1307.382812 590.875183,1290.085449 
	C590.734680,1287.557861 590.191345,1285.052734 589.854370,1282.677979 
	C582.966309,1282.677979 576.759766,1282.677979 569.804382,1282.677979 
	C569.804382,1286.431396 569.644714,1289.692383 569.829895,1292.933716 
	C571.178589,1316.538696 571.841248,1340.214111 574.154785,1363.726074 
	C578.568787,1408.582520 588.090393,1452.493652 601.548035,1495.503174 
	C621.959290,1560.736084 650.907593,1621.939941 688.852661,1678.843018 
	C735.165466,1748.294678 792.091797,1807.748779 858.939941,1857.547852 
	C927.466492,1908.597168 1003.196838,1945.451538 1086.739014,1969.901611 
M1203.078247,648.075012 
	C1226.884644,661.737366 1252.198853,659.966248 1277.852051,655.016296 
	C1280.353638,657.961609 1282.525391,660.913757 1285.089600,663.472717 
	C1300.080322,678.432983 1323.913574,672.541260 1329.327515,652.166931 
	C1331.262573,644.885132 1331.087280,637.035706 1331.764160,629.435547 
	C1331.843994,628.539246 1331.217041,627.580078 1330.907959,626.619446 
	C1329.827759,626.454224 1328.828491,626.107361 1327.874146,626.203735 
	C1326.636353,626.328613 1325.434326,626.806396 1324.399414,627.083313 
	C1321.280029,645.389160 1316.193726,649.005005 1303.865967,641.492432 
	C1304.837769,640.176453 1305.656860,638.780823 1306.743652,637.640259 
	C1316.302734,627.608948 1321.418213,615.509338 1323.012451,601.923950 
	C1326.586426,571.470276 1314.883667,539.108643 1278.366577,528.942200 
	C1256.262817,522.788635 1234.126465,523.827332 1212.662964,532.144226 
	C1199.579712,537.213806 1189.162964,545.766174 1182.061401,558.167786 
	C1168.403198,582.019531 1170.180054,627.787231 1203.078247,648.075012 
M1505.986694,596.259949 
	C1509.224854,595.846924 1512.463013,595.433960 1516.223145,594.954407 
	C1518.450195,585.061096 1520.672729,575.187012 1522.997803,564.858032 
	C1503.987793,560.370361 1486.365723,556.210327 1468.328003,551.952209 
	C1465.770874,562.795532 1463.496704,572.439331 1461.138062,582.440552 
	C1466.679565,584.896545 1471.912598,587.226501 1470.291382,594.094116 
	C1467.004761,608.016724 1463.824951,621.973633 1460.074219,635.773193 
	C1458.463257,641.699768 1453.919922,645.210266 1447.476074,645.377747 
	C1436.200684,645.670776 1429.608765,638.744080 1431.695801,627.635071 
	C1434.211670,614.243103 1437.721313,601.037048 1440.836792,587.758972 
	C1441.962158,582.962585 1444.719971,580.197144 1449.992554,580.455261 
	C1451.504883,580.529236 1453.043945,580.057617 1454.809692,579.801575 
	C1457.052124,569.762878 1459.188721,560.197449 1461.432983,550.150513 
	C1436.116943,544.158691 1412.009766,538.452942 1387.358398,532.618408 
	C1384.761963,543.656677 1382.507812,553.239746 1380.301880,562.617493 
	C1392.985718,569.086487 1392.990723,569.087646 1389.996460,582.110291 
	C1386.939331,595.406860 1383.287354,608.599243 1380.952026,622.021118 
	C1377.854492,639.822449 1384.285156,654.100830 1399.437622,664.135193 
	C1412.529419,672.804871 1427.260620,676.959351 1442.702148,678.048096 
	C1469.926270,679.967651 1485.448242,668.571594 1492.438599,642.322449 
	C1493.807495,637.181885 1494.838989,631.950439 1496.246826,626.821472 
	C1498.961304,616.931396 1501.833130,607.084473 1505.986694,596.259949 
M724.986389,976.628967 
	C739.591736,955.608948 754.197083,934.588928 769.315979,912.829773 
	C760.329041,906.619873 751.996460,900.862122 743.764771,895.174133 
	C731.586060,909.752258 729.541870,910.243103 720.948730,900.983826 
	C726.545959,892.859863 732.356750,884.749268 737.832520,876.418579 
	C755.307617,849.832581 749.612793,829.566589 720.870239,815.546814 
	C720.571167,815.400940 720.296936,815.203369 719.995728,815.063049 
	C706.571472,808.806885 693.846313,809.959473 682.882874,819.999451 
	C677.050781,825.340271 671.989868,831.701111 667.388672,838.175659 
	C652.337280,859.355408 637.651794,880.795288 622.840210,902.145325 
	C621.192993,904.519775 619.639954,906.959473 617.663696,909.941406 
	C626.592773,916.161438 634.889832,921.941284 642.956177,927.560364 
	C653.598083,917.865112 653.601868,917.859619 664.871582,925.667114 
	C673.634277,931.737732 682.408630,937.791748 691.136414,943.912170 
	C701.169373,950.947937 701.137390,950.971191 696.371521,962.520813 
	C696.167175,963.016052 696.574768,963.763733 696.797058,964.906677 
	C703.318298,969.444397 710.199707,974.113098 716.939392,978.978027 
	C719.880005,981.100708 722.216003,981.468384 724.986389,976.628967 
M1530.892578,679.648438 
	C1527.618042,686.028992 1524.343384,692.409546 1520.803467,699.307068 
	C1557.202271,718.645569 1592.627808,737.467041 1628.604614,756.581360 
	C1636.128540,742.393372 1643.202148,729.054688 1650.497314,715.298218 
	C1641.029663,710.308411 1632.657959,705.896301 1624.493896,701.593506 
	C1615.943115,712.559753 1614.318848,712.933594 1603.108521,707.070862 
	C1599.911133,705.398743 1596.797119,703.567139 1592.917847,701.403076 
	C1596.861572,693.974060 1600.528687,687.066223 1604.301514,679.959351 
	C1612.664429,684.254639 1620.250977,688.151184 1628.444336,692.359375 
	C1630.870850,687.688354 1632.957764,683.671326 1635.269531,679.221375 
	C1627.100708,674.718506 1619.626709,670.598755 1611.548218,666.145752 
	C1615.366089,659.114197 1618.778564,652.829346 1622.264038,646.409973 
	C1626.306152,648.533020 1629.562744,650.199768 1632.779175,651.940674 
	C1643.840698,657.928040 1644.166138,658.782288 1640.387329,670.625977 
	C1640.219849,671.150879 1640.664673,671.871094 1640.995972,673.177002 
	C1648.726196,677.285278 1656.856812,681.606384 1665.903564,686.414368 
	C1673.307495,672.461792 1680.400146,659.095825 1687.898315,644.965820 
	C1651.662476,625.699158 1616.237305,606.863464 1579.974609,587.582520 
	C1574.885254,597.115112 1570.121338,606.037964 1564.857300,615.897583 
	C1566.282349,616.650818 1567.302490,616.980652 1568.058350,617.621948 
	C1575.397339,623.848328 1575.738892,625.147949 1571.367920,633.548462 
	C1565.532959,644.762390 1559.610229,655.932739 1553.565674,667.034851 
	C1549.490601,674.519592 1547.919434,675.101501 1540.058105,673.137634 
	C1538.528687,672.755554 1536.993164,672.397217 1535.088501,671.938232 
	C1533.810425,674.316040 1532.728149,676.329834 1530.892578,679.648438 
M751.423035,740.444580 
	C746.246704,745.050110 741.070435,749.655640 735.560547,754.558044 
	C742.816589,762.855469 749.521179,770.522217 756.058838,777.998230 
	C766.723633,771.779846 768.409668,771.339111 772.944214,776.307312 
	C782.817749,787.124756 792.282898,798.315979 801.873047,809.390625 
	C805.195801,813.227722 805.153625,817.173889 801.949036,821.120728 
	C800.729553,822.622803 799.605225,824.202087 798.021362,826.296448 
	C804.845337,834.126831 811.511230,841.775757 818.459106,849.748291 
	C849.745605,822.502930 880.080017,796.086731 910.753052,769.375610 
	C900.198364,757.277771 890.240234,745.863708 880.045349,734.178284 
	C871.981262,741.209900 865.005676,747.292358 857.822937,753.555420 
	C858.800842,755.214478 859.444519,756.311340 860.092773,757.405579 
	C864.719238,765.215271 864.632568,766.676453 858.217163,772.879578 
	C854.688904,776.291077 850.848572,779.379761 846.525757,783.158813 
	C840.908813,776.652649 835.842102,770.783752 830.547180,764.650513 
	C837.625488,758.274170 843.951355,752.575684 850.647766,746.543335 
	C847.081970,742.497253 844.098022,739.111450 840.825928,735.398682 
	C833.697937,741.484741 827.208008,747.026062 820.238831,752.976562 
	C814.930054,746.895569 810.248718,741.533325 805.439209,736.024231 
	C809.145813,732.758118 811.862427,730.315186 814.631531,727.933228 
	C824.176270,719.722656 824.972717,719.729919 834.793823,727.627625 
	C835.226685,727.975769 836.040649,727.850159 837.257690,728.031921 
	C843.946472,722.168274 850.909790,716.063965 858.490479,709.418396 
	C848.123413,697.492859 838.189087,686.065125 827.736938,674.041687 
	C802.132874,696.334595 777.321716,717.937195 751.423035,740.444580 
M1773.708740,783.599182 
	C1768.988647,775.583862 1764.224609,767.593933 1759.566162,759.543030 
	C1757.075195,755.238037 1754.197021,751.021484 1752.618530,746.382202 
	C1751.847534,744.115723 1752.807373,740.018494 1754.528076,738.501221 
	C1756.194458,737.031982 1760.294434,736.785706 1762.538086,737.779663 
	C1771.232910,741.631531 1775.533813,749.073242 1775.959595,758.314819 
	C1776.182861,763.158875 1774.850830,768.074585 1774.090454,773.971436 
	C1780.159668,779.330566 1786.769775,785.167297 1793.954590,791.511597 
	C1804.477905,779.746277 1814.359619,768.698303 1824.588989,757.261536 
	C1817.173706,750.744141 1810.513184,744.890198 1804.062622,739.220764 
	C1801.662842,740.729614 1800.130981,741.692749 1798.225586,742.890747 
	C1796.370850,739.220642 1794.886719,735.909729 1793.085449,732.781372 
	C1783.075439,715.396057 1769.290894,702.413452 1749.522949,697.077637 
	C1733.850952,692.847290 1719.509033,698.427673 1709.986938,711.515259 
	C1702.518188,721.781006 1701.329346,733.162109 1705.145142,744.735901 
	C1707.505005,751.893250 1711.599731,758.521729 1715.274414,765.190125 
	C1718.961548,771.881104 1723.314209,778.207825 1726.942505,784.927795 
	C1728.883179,788.522400 1729.672607,792.691772 1725.755859,795.806519 
	C1721.856079,798.907959 1718.020508,796.982422 1714.739136,794.682861 
	C1707.814819,789.830261 1703.660889,783.039307 1703.625488,774.505432 
	C1703.603882,769.300903 1704.832520,764.091248 1705.611084,758.014709 
	C1699.492554,752.546631 1692.869019,746.627136 1685.621948,740.150391 
	C1680.031006,746.396545 1674.965698,752.030090 1669.929565,757.689575 
	C1664.914673,763.325439 1659.929077,768.987305 1654.542114,775.077087 
	C1661.921143,781.575378 1668.556519,787.418701 1674.967041,793.064087 
	C1677.388550,791.691772 1678.987671,790.785461 1680.852173,789.728760 
	C1682.567871,793.261292 1683.900635,796.288574 1685.468750,799.188660 
	C1695.216309,817.216980 1709.692505,830.014893 1728.979004,836.816406 
	C1746.626099,843.039673 1762.124268,837.091309 1772.028809,821.300842 
	C1779.363525,809.607422 1779.596924,797.519043 1773.708740,783.599182 
M998.814514,672.308167 
	C990.577393,656.018921 982.340332,639.729736 974.137451,623.508118 
	C984.062317,617.369629 987.074707,617.921570 992.530640,626.391602 
	C994.267883,629.088440 995.942139,631.825806 997.956726,635.041809 
	C1006.441711,630.716492 1014.273865,626.723999 1022.572998,622.493408 
	C1014.662720,606.995117 1007.304810,592.579041 999.672302,577.625061 
	C958.304260,598.676636 917.787354,619.294983 876.500366,640.305298 
	C884.304871,655.598389 891.643555,669.978760 899.357117,685.093750 
	C908.005371,680.722839 915.893188,676.736206 924.274658,672.500122 
	C922.764404,669.117798 921.528320,666.471985 920.392517,663.783813 
	C916.243225,653.963440 917.682617,650.894348 928.867615,646.796875 
	C936.025208,660.904297 943.215454,675.101624 950.429382,689.286926 
	C957.106567,702.416931 957.117737,702.411255 946.464966,712.165283 
	C950.966492,721.043091 955.546753,730.075989 960.315247,739.480225 
	C984.352966,727.245667 1007.115601,715.660156 1030.590942,703.711853 
	C1025.575195,693.941650 1020.962646,684.956726 1016.405518,676.079895 
	C1009.746948,677.511902 1003.646118,681.255127 998.814514,672.308167 
M1899.631348,941.633606 
	C1901.367310,943.985901 1903.103149,946.338196 1905.206055,949.187805 
	C1919.214600,939.802551 1932.695923,930.770508 1946.732056,921.366699 
	C1920.901611,882.881348 1895.545654,845.103088 1869.696533,806.590210 
	C1855.308228,816.230957 1841.707520,825.343994 1827.727539,834.711060 
	C1833.560303,843.158752 1838.580322,850.429260 1843.716553,857.868286 
	C1846.950073,855.893921 1849.168457,854.469604 1851.451538,853.157593 
	C1860.975586,847.684326 1863.752441,848.524353 1869.774414,859.175537 
	C1856.060303,868.384583 1842.297974,877.643188 1828.517212,886.874207 
	C1817.669434,894.140442 1817.666626,894.117188 1808.286865,885.598694 
	C1807.887207,885.235779 1807.114136,885.284058 1806.093140,885.039978 
	C1798.147339,890.395386 1789.966309,895.909180 1781.295410,901.753174 
	C1796.283203,924.022644 1810.658569,945.382080 1825.338623,967.194336 
	C1834.632812,960.870972 1842.767822,955.336426 1850.651367,949.972839 
	C1846.008667,936.340393 1846.001465,936.329712 1857.118286,928.852722 
	C1866.791382,922.346863 1876.479126,915.862671 1886.168945,909.381836 
	C1890.230957,906.665039 1894.314697,903.980774 1898.134155,901.450256 
	C1906.001831,908.508728 1905.072510,914.279724 1897.202026,920.297791 
	C1894.640747,922.256226 1892.117920,924.264954 1889.443970,926.355103 
	C1892.896606,931.565552 1895.832886,935.996765 1899.631348,941.633606 
M1353.603149,1553.345703 
	C1353.020386,1550.749146 1352.572144,1548.113403 1351.832275,1545.562500 
	C1347.948853,1532.171875 1344.510742,1518.620605 1339.895874,1505.484131 
	C1336.223877,1495.031372 1327.252441,1491.133179 1317.080933,1489.992432 
	C1312.853638,1514.216309 1308.748779,1537.797241 1304.616943,1561.373657 
	C1303.573608,1567.326782 1302.679932,1573.046631 1306.555298,1578.669189 
	C1308.062744,1580.856445 1308.131226,1584.350952 1308.070679,1587.233643 
	C1307.966309,1592.215332 1307.049072,1597.175415 1306.827637,1602.160278 
	C1306.193359,1616.438599 1305.542603,1630.722168 1305.364258,1645.009644 
	C1305.325806,1648.100952 1306.393066,1651.974365 1308.388306,1654.197388 
	C1320.798340,1668.023560 1334.201660,1679.921509 1355.036743,1672.101562 
	C1356.264893,1671.640625 1357.659180,1671.643188 1358.952148,1671.330933 
	C1372.650879,1668.021362 1375.045166,1660.629639 1367.030762,1649.217529 
	C1362.316650,1642.504883 1356.324341,1635.124512 1355.513794,1627.551514 
	C1353.645508,1610.092896 1353.994629,1592.309814 1354.694702,1574.708130 
	C1354.960571,1568.020996 1355.609253,1561.547852 1353.603149,1553.345703 
M988.678772,1493.895630 
	C991.943542,1488.104736 995.177124,1482.296021 998.481689,1476.527954 
	C1001.745728,1470.830688 1008.555298,1467.529541 1010.417908,1460.033447 
	C1008.536499,1460.162598 1007.360779,1459.887695 1006.661743,1460.343506 
	C990.364563,1470.973877 972.242981,1477.564575 954.001892,1483.734619 
	C948.602112,1485.560913 945.629089,1488.167358 944.780701,1493.797607 
	C942.603577,1508.246460 940.308228,1522.681519 937.771362,1537.071167 
	C935.815369,1548.166138 934.807922,1559.728027 928.338928,1569.352417 
	C924.023865,1575.772461 922.598877,1582.589844 922.046143,1589.983521 
	C921.282715,1600.194336 926.361877,1608.636353 930.113464,1617.425415 
	C933.274902,1624.831665 936.101807,1626.515869 944.284119,1624.896606 
	C951.385437,1623.491211 958.282715,1620.871338 965.126465,1618.391602 
	C975.069336,1614.789307 975.932373,1613.339600 975.002319,1603.014771 
	C974.226562,1594.403198 972.551514,1585.825073 972.405518,1577.213013 
	C971.925110,1548.853516 972.090088,1520.510620 988.678772,1493.895630 
M528.462036,1185.071533 
	C521.802246,1190.912476 520.314636,1195.773438 523.517822,1201.227539 
	C526.417236,1206.164429 530.073181,1206.883911 538.475525,1204.720947 
	C541.340149,1203.983643 544.282043,1201.636230 547.385437,1203.599731 
	C547.428284,1204.500488 547.585449,1205.032837 547.439087,1205.136597 
	C544.255859,1207.390991 541.104980,1209.702148 537.811279,1211.786499 
	C533.960449,1214.223633 532.672302,1217.859497 533.010803,1222.054077 
	C533.363708,1226.425781 536.060974,1229.346802 539.995667,1231.059570 
	C546.468323,1233.877075 552.278870,1230.777832 554.348145,1223.349243 
	C555.726013,1218.402954 556.900024,1213.400024 558.165283,1208.422363 
	C558.846680,1208.499146 559.528015,1208.575928 560.209351,1208.652710 
	C560.401978,1211.077759 560.644470,1213.500244 560.775574,1215.928589 
	C560.972412,1219.577271 560.667297,1223.309448 561.332764,1226.864380 
	C562.646851,1233.884155 568.010254,1236.781982 574.751343,1234.589233 
	C582.786743,1231.975464 585.333679,1223.623413 579.848877,1217.122314 
	C576.784485,1213.490112 573.233032,1210.268677 569.901123,1206.862183 
	C575.874512,1205.480957 578.928345,1209.446533 582.926575,1211.242432 
	C591.662170,1215.166382 598.677551,1210.959106 598.810852,1201.665894 
	C598.922729,1193.871338 593.525208,1189.500122 585.677979,1191.267822 
	C580.971497,1192.327759 576.351135,1193.770264 571.692078,1195.040894 
	C571.346191,1194.284668 571.000244,1193.528564 570.654358,1192.772339 
	C575.022766,1190.156860 579.423462,1187.593384 583.750366,1184.910767 
	C587.949951,1182.307129 589.335022,1178.353149 588.269470,1173.707886 
	C587.195374,1169.025391 583.915100,1166.393555 579.262695,1165.464722 
	C573.366882,1164.287720 569.290588,1166.673950 567.134766,1173.043335 
	C565.510132,1177.843628 564.381470,1182.811768 563.031982,1187.705200 
	C560.807129,1186.180176 560.307434,1184.809814 560.262207,1183.424683 
	C560.142700,1179.765381 560.419861,1176.086182 560.174561,1172.439453 
	C559.762817,1166.317749 557.394836,1163.306885 552.532715,1162.118896 
	C547.919800,1160.991699 542.831116,1162.981079 540.297363,1166.901978 
	C537.300781,1171.539062 537.783081,1175.525757 542.158142,1180.419922 
	C543.927917,1182.399780 546.157898,1183.981445 547.835693,1186.025635 
	C548.835754,1187.244141 549.169922,1189.009155 550.775269,1192.858887 
	C545.761414,1190.131226 543.091980,1188.297852 540.150513,1187.180542 
	C536.867310,1185.933350 533.337158,1185.336304 528.462036,1185.071533 
M1998.512085,1183.953857 
	C1999.131226,1188.581543 1999.288208,1193.142090 1996.837769,1197.454590 
	C1995.300781,1194.990356 1994.623047,1192.530273 1993.984131,1190.060181 
	C1993.234863,1187.162964 1992.783447,1184.157715 1991.739014,1181.373413 
	C1988.721313,1173.329224 1980.362183,1171.533569 1974.104980,1177.440796 
	C1968.661987,1182.579346 1969.343628,1189.684937 1975.969727,1194.347290 
	C1980.185303,1197.313477 1984.670288,1199.897217 1989.034424,1202.652466 
	C1988.700806,1203.352173 1988.367188,1204.052002 1988.033691,1204.751709 
	C1983.388184,1203.327637 1978.788696,1201.724243 1974.087036,1200.520020 
	C1966.418091,1198.555786 1960.737915,1201.963867 1960.012329,1208.843628 
	C1959.531860,1213.400757 1960.578735,1217.441162 1964.629272,1220.245850 
	C1968.405029,1222.860474 1972.131958,1222.317871 1975.906494,1220.272339 
	C1979.473877,1218.338867 1983.065430,1216.449951 1986.646484,1214.541382 
	C1987.196533,1215.289062 1987.746704,1216.036743 1988.296875,1216.784424 
	C1985.179443,1219.867920 1981.909912,1222.814209 1978.977783,1226.064941 
	C1973.731079,1231.881470 1974.911987,1239.265381 1981.463745,1242.832764 
	C1988.872192,1246.866455 1996.683472,1243.034424 1997.651123,1234.427734 
	C1998.251465,1229.086670 1997.762695,1223.623169 1997.762695,1218.214600 
	C1998.526733,1218.111938 1999.290894,1218.009399 2000.054932,1217.906738 
	C2000.671021,1219.229736 2001.509888,1220.496460 2001.860718,1221.886475 
	C2002.836670,1225.753906 2003.312988,1229.768188 2004.529419,1233.549927 
	C2006.625977,1240.068604 2011.764648,1242.840454 2017.586182,1240.974976 
	C2022.083618,1239.533691 2024.980103,1236.524902 2025.774048,1231.823853 
	C2026.522705,1227.390869 2024.629517,1224.049561 2020.941406,1221.664185 
	C2016.425781,1218.743408 2011.887329,1215.857788 2007.358765,1212.956909 
	C2007.733154,1212.196167 2008.107666,1211.435425 2008.482056,1210.674561 
	C2013.418579,1212.213013 2018.317505,1213.889282 2023.302368,1215.250488 
	C2028.102783,1216.561401 2033.205933,1214.460205 2035.420166,1210.600342 
	C2037.559326,1206.871216 2037.049194,1200.819824 2034.304688,1197.370117 
	C2031.310303,1193.606201 2026.887939,1192.703735 2021.703735,1195.026611 
	C2019.588867,1195.974121 2017.715698,1197.451782 2015.621216,1198.455933 
	C2013.503296,1199.471313 2011.247437,1200.199219 2009.052002,1201.052979 
	C2009.587891,1197.817627 2010.921997,1196.024658 2012.446655,1194.411621 
	C2014.043335,1192.722168 2015.957275,1191.324463 2017.494507,1189.588501 
	C2020.854980,1185.794189 2021.498047,1180.640625 2019.057495,1176.743164 
	C2016.529907,1172.706909 2012.766479,1171.000366 2008.003662,1171.472534 
	C2001.466675,1172.120728 1999.009399,1176.349854 1998.512085,1183.953857 
M1098.085205,642.734070 
	C1109.813965,639.564270 1121.542725,636.394470 1133.799561,633.081970 
	C1130.675293,621.658020 1127.904053,611.524597 1124.873047,600.441467 
	C1105.313354,605.737488 1086.592163,610.806458 1067.027710,616.103760 
	C1070.187500,627.606018 1073.026855,637.942017 1075.963867,648.633667 
	C1083.747681,646.616150 1090.150146,644.956604 1098.085205,642.734070 
z"/>
<path fill="#FDFDFD" opacity="1.000000" stroke="none" 
	d="
M975.066895,1435.347046 
	C974.813599,1433.830566 973.822266,1431.875977 974.421814,1430.865723 
	C980.019958,1421.433960 979.996704,1410.973389 979.423340,1400.732544 
	C978.675110,1387.367432 981.710388,1375.298096 987.059937,1363.093994 
	C1003.761658,1324.991699 1019.715698,1286.561401 1035.916016,1248.239990 
	C1037.203369,1245.194702 1038.156982,1242.008423 1039.725342,1237.593750 
	C1035.383057,1236.328125 1031.502075,1234.563599 1027.475952,1234.121460 
	C988.867249,1229.882446 951.974426,1218.050293 914.508484,1208.775757 
	C911.190247,1207.954346 906.330383,1207.974121 906.027954,1203.262085 
	C905.689453,1197.988525 910.465149,1196.155273 914.404480,1194.586670 
	C916.757202,1193.649780 919.662781,1193.700195 922.274414,1193.900146 
	C927.247925,1194.281006 932.236267,1194.834839 937.135620,1195.757080 
	C971.902771,1202.301147 1006.849121,1200.102661 1041.768555,1197.836426 
	C1052.572998,1197.135132 1062.668213,1193.316162 1071.532227,1187.092285 
	C1090.531860,1173.751953 1111.882935,1165.293213 1133.118408,1156.505615 
	C1144.367310,1151.850708 1155.864746,1149.654419 1168.117310,1149.759033 
	C1211.766235,1150.131470 1255.419189,1149.997192 1299.070435,1150.135986 
	C1326.556274,1150.223389 1352.242188,1141.932373 1377.744263,1133.074097 
	C1382.241211,1131.512085 1386.365967,1128.022217 1389.862549,1124.604248 
	C1398.674805,1115.990356 1407.446045,1107.268188 1415.494507,1097.950928 
	C1444.342529,1064.554321 1476.440186,1034.510376 1510.287964,1006.365906 
	C1522.849243,995.921143 1530.250366,982.630005 1536.994995,968.435791 
	C1542.981445,955.837158 1548.892700,943.162964 1555.704224,931.007935 
	C1562.044434,919.693665 1569.447144,908.967224 1576.562012,898.099792 
	C1578.473145,895.180603 1581.039795,892.690674 1583.137451,890.202942 
	C1590.049683,892.759033 1589.703491,897.581848 1589.042114,902.225098 
	C1586.976685,916.728210 1584.544189,931.180237 1582.586304,945.696838 
	C1581.773804,951.721313 1579.493896,958.186584 1585.681885,964.372437 
	C1588.313599,962.685608 1591.326172,961.325928 1593.615845,959.190735 
	C1605.072266,948.507263 1616.219482,937.626160 1623.663208,923.427979 
	C1627.617065,915.886658 1632.853882,908.962219 1642.039307,904.791931 
	C1640.329590,912.967407 1638.609863,921.140869 1636.912354,929.318848 
	C1633.801025,944.307800 1630.447266,959.252502 1627.680542,974.304993 
	C1625.476196,986.298523 1627.065430,988.295288 1637.247437,994.190735 
	C1647.307373,1000.015442 1656.978149,1006.514160 1666.798462,1012.750488 
	C1672.622314,1016.449036 1676.782471,1021.485901 1678.894653,1028.122681 
	C1685.668213,1049.407104 1697.568359,1067.455078 1711.967285,1084.472656 
	C1724.364014,1099.123901 1737.594238,1113.528809 1744.850952,1131.891724 
	C1745.829102,1134.367188 1747.043579,1136.749146 1748.024048,1139.223877 
	C1751.956299,1149.149780 1750.544067,1156.057617 1741.030640,1159.968018 
	C1726.940918,1165.759399 1715.857300,1176.023682 1702.775757,1183.269165 
	C1692.806152,1188.791138 1683.849487,1190.081665 1673.555298,1185.388794 
	C1652.349854,1175.721558 1630.749146,1166.887817 1609.792480,1156.719116 
	C1593.095459,1148.617554 1580.498901,1150.267944 1566.296875,1165.762451 
	C1557.102905,1175.792847 1551.908081,1186.967285 1549.726196,1200.151733 
	C1545.202759,1227.483643 1541.981323,1254.816772 1543.592651,1282.656372 
	C1545.074829,1308.263672 1538.723755,1332.874268 1532.174072,1357.390015 
	C1529.524048,1367.308350 1526.201050,1377.370728 1525.718628,1387.488281 
	C1523.585815,1432.214966 1512.065063,1474.975220 1498.830078,1517.245239 
	C1491.756226,1539.838013 1492.720215,1561.839722 1497.154419,1584.270874 
	C1498.883789,1593.018188 1504.282593,1599.889282 1509.721191,1606.706787 
	C1513.866089,1611.902588 1518.099609,1617.138428 1521.396118,1622.872559 
	C1525.613770,1630.208862 1523.497925,1634.781250 1515.220703,1637.042603 
	C1499.980835,1641.206177 1484.788452,1639.644043 1469.832764,1635.479370 
	C1463.261719,1633.649536 1459.937988,1628.256714 1459.984863,1621.843018 
	C1460.136230,1601.111938 1453.408203,1581.821167 1447.752930,1562.390991 
	C1444.347534,1550.691040 1443.606689,1539.695312 1448.603027,1528.483154 
	C1449.546265,1526.366455 1449.904663,1523.993652 1450.799438,1521.850098 
	C1458.372192,1503.709839 1460.809326,1484.696411 1460.959717,1465.201660 
	C1460.997681,1460.281982 1461.717651,1455.170898 1463.204224,1450.490967 
	C1472.553833,1421.056763 1477.103882,1390.949341 1477.445190,1360.079224 
	C1477.592407,1346.776245 1478.521851,1333.444702 1479.899536,1320.209839 
	C1480.501831,1314.424316 1482.481812,1308.556274 1484.925903,1303.225342 
	C1501.104736,1267.937378 1509.849365,1230.983765 1510.499023,1192.163574 
	C1510.570923,1187.863159 1510.311279,1183.422241 1509.299683,1179.267090 
	C1507.267090,1170.916626 1501.725098,1168.287842 1494.398071,1172.713013 
	C1489.066650,1175.932983 1484.361084,1180.359985 1479.870972,1184.754272 
	C1475.360474,1189.168335 1471.505127,1194.246460 1467.285522,1198.964600 
	C1461.308594,1205.647949 1454.072388,1210.116943 1444.994263,1211.097046 
	C1437.711792,1211.883179 1430.431519,1212.852051 1423.124390,1213.206299 
	C1412.593384,1213.716553 1403.537842,1210.219849 1396.420532,1202.150391 
	C1391.571777,1196.652832 1386.673096,1191.192383 1381.609863,1185.893677 
	C1378.631104,1182.776489 1375.552979,1179.633911 1372.057617,1177.153564 
	C1361.933105,1169.969238 1353.078125,1173.510254 1352.787354,1185.947876 
	C1352.526245,1197.114502 1353.849243,1208.688477 1356.729370,1219.480713 
	C1362.639771,1241.627441 1369.673218,1263.501465 1376.994385,1285.235229 
	C1381.978516,1300.031128 1380.800293,1305.018433 1367.552124,1313.512573 
	C1357.149780,1320.182129 1345.580322,1323.160522 1333.461182,1323.575317 
	C1318.818237,1324.076416 1304.147949,1324.029419 1289.493042,1323.873047 
	C1244.780273,1323.395874 1200.217896,1325.638672 1155.954712,1332.006958 
	C1112.845581,1338.209106 1074.041748,1354.709595 1040.323364,1382.588135 
	C1025.945435,1394.475830 1011.742615,1406.579102 997.214966,1418.279785 
	C990.224426,1423.910156 982.665100,1428.834106 975.129395,1434.649170 
	C974.895508,1435.220337 975.066895,1435.347046 975.066895,1435.347046 
z"/>
<path fill="#F7F8F9" opacity="1.000000" stroke="none" 
	d="
M1085.954590,1969.707031 
	C1003.196838,1945.451538 927.466492,1908.597168 858.939941,1857.547852 
	C792.091797,1807.748779 735.165466,1748.294678 688.852661,1678.843018 
	C650.907593,1621.939941 621.959290,1560.736084 601.548035,1495.503174 
	C588.090393,1452.493652 578.568787,1408.582520 574.154785,1363.726074 
	C571.841248,1340.214111 571.178589,1316.538696 569.829895,1292.933716 
	C569.644714,1289.692383 569.804382,1286.431396 569.804382,1282.677979 
	C576.759766,1282.677979 582.966309,1282.677979 589.854370,1282.677979 
	C590.191345,1285.052734 590.734680,1287.557861 590.875183,1290.085449 
	C591.836548,1307.382812 592.411743,1324.706787 593.673767,1341.981079 
	C597.573425,1395.362061 608.371155,1447.367310 624.963379,1498.245850 
	C651.599670,1579.923950 691.978882,1654.158813 746.327026,1720.567871 
	C798.706116,1784.570190 860.351929,1838.054443 931.782471,1880.102051 
	C987.244934,1912.749878 1046.176636,1936.978271 1108.253418,1953.629028 
	C1147.935547,1964.272583 1188.375610,1970.778198 1229.331421,1973.683350 
	C1248.921875,1975.072876 1268.605225,1975.920410 1288.238770,1975.795898 
	C1363.781860,1975.317139 1437.325562,1963.037354 1508.842529,1938.275269 
	C1598.528198,1907.222656 1678.785034,1860.274170 1748.856689,1796.377930 
	C1838.831665,1714.333008 1903.186523,1615.433350 1941.529907,1499.705688 
	C1959.538696,1445.351562 1970.475830,1389.654785 1974.144653,1332.538696 
	C1975.083862,1317.919434 1975.415649,1303.261353 1976.031860,1288.621338 
	C1976.140625,1286.037842 1976.276978,1283.455322 1976.422363,1280.417603 
	C1983.566528,1280.417603 1990.051758,1280.417603 1996.526733,1280.417603 
	C2001.616821,1450.183838 1929.606201,1689.531494 1713.962646,1853.036743 
	C1536.178223,1987.836060 1305.054565,2031.747070 1085.954590,1969.707031 
z"/>
<path fill="#FBFBFC" opacity="1.000000" stroke="none" 
	d="
M1202.444946,647.709839 
	C1170.180054,627.787231 1168.403198,582.019531 1182.061401,558.167786 
	C1189.162964,545.766174 1199.579712,537.213806 1212.662964,532.144226 
	C1234.126465,523.827332 1256.262817,522.788635 1278.366577,528.942200 
	C1314.883667,539.108643 1326.586426,571.470276 1323.012451,601.923950 
	C1321.418213,615.509338 1316.302734,627.608948 1306.743652,637.640259 
	C1305.656860,638.780823 1304.837769,640.176453 1303.865967,641.492432 
	C1316.193726,649.005005 1321.280029,645.389160 1324.399414,627.083313 
	C1325.434326,626.806396 1326.636353,626.328613 1327.874146,626.203735 
	C1328.828491,626.107361 1329.827759,626.454224 1330.907959,626.619446 
	C1331.217041,627.580078 1331.843994,628.539246 1331.764160,629.435547 
	C1331.087280,637.035706 1331.262573,644.885132 1329.327515,652.166931 
	C1323.913574,672.541260 1300.080322,678.432983 1285.089600,663.472717 
	C1282.525391,660.913757 1280.353638,657.961609 1277.852051,655.016296 
	C1252.198853,659.966248 1226.884644,661.737366 1202.444946,647.709839 
M1264.844116,578.560608 
	C1264.153076,574.644653 1263.890747,570.591309 1262.687866,566.839478 
	C1259.526978,556.981262 1253.450684,553.661499 1243.529541,555.839844 
	C1236.973389,557.279480 1232.837769,562.267517 1232.318115,571.615051 
	C1231.728760,582.217529 1232.106567,592.880737 1232.293579,603.513550 
	C1232.330811,605.632935 1233.405396,607.734070 1234.282715,610.838196 
	C1244.084839,602.279541 1254.576050,603.717041 1265.108765,607.035339 
	C1265.108765,597.488953 1265.108765,588.900085 1264.844116,578.560608 
M1241.294556,615.768433 
	C1237.609009,621.982727 1237.811279,624.749573 1242.133789,627.249939 
	C1248.509033,630.937683 1256.989624,628.610046 1261.801636,621.619507 
	C1256.711670,615.665649 1250.756348,612.314453 1241.294556,615.768433 
z"/>
<path fill="#FAFBFB" opacity="1.000000" stroke="none" 
	d="
M1505.313232,596.739807 
	C1501.833130,607.084473 1498.961304,616.931396 1496.246826,626.821472 
	C1494.838989,631.950439 1493.807495,637.181885 1492.438599,642.322449 
	C1485.448242,668.571594 1469.926270,679.967651 1442.702148,678.048096 
	C1427.260620,676.959351 1412.529419,672.804871 1399.437622,664.135193 
	C1384.285156,654.100830 1377.854492,639.822449 1380.952026,622.021118 
	C1383.287354,608.599243 1386.939331,595.406860 1389.996460,582.110291 
	C1392.990723,569.087646 1392.985718,569.086487 1380.301880,562.617493 
	C1382.507812,553.239746 1384.761963,543.656677 1387.358398,532.618408 
	C1412.009766,538.452942 1436.116943,544.158691 1461.432983,550.150513 
	C1459.188721,560.197449 1457.052124,569.762878 1454.809692,579.801575 
	C1453.043945,580.057617 1451.504883,580.529236 1449.992554,580.455261 
	C1444.719971,580.197144 1441.962158,582.962585 1440.836792,587.758972 
	C1437.721313,601.037048 1434.211670,614.243103 1431.695801,627.635071 
	C1429.608765,638.744080 1436.200684,645.670776 1447.476074,645.377747 
	C1453.919922,645.210266 1458.463257,641.699768 1460.074219,635.773193 
	C1463.824951,621.973633 1467.004761,608.016724 1470.291382,594.094116 
	C1471.912598,587.226501 1466.679565,584.896545 1461.138062,582.440552 
	C1463.496704,572.439331 1465.770874,562.795532 1468.328003,551.952209 
	C1486.365723,556.210327 1503.987793,560.370361 1522.997803,564.858032 
	C1520.672729,575.187012 1518.450195,585.061096 1516.223145,594.954407 
	C1512.463013,595.433960 1509.224854,595.846924 1505.313232,596.739807 
z"/>
<path fill="#FBFCFC" opacity="1.000000" stroke="none" 
	d="
M724.561646,977.262939 
	C722.216003,981.468384 719.880005,981.100708 716.939392,978.978027 
	C710.199707,974.113098 703.318298,969.444397 696.797058,964.906677 
	C696.574768,963.763733 696.167175,963.016052 696.371521,962.520813 
	C701.137390,950.971191 701.169373,950.947937 691.136414,943.912170 
	C682.408630,937.791748 673.634277,931.737732 664.871582,925.667114 
	C653.601868,917.859619 653.598083,917.865112 642.956177,927.560364 
	C634.889832,921.941284 626.592773,916.161438 617.663696,909.941406 
	C619.639954,906.959473 621.192993,904.519775 622.840210,902.145325 
	C637.651794,880.795288 652.337280,859.355408 667.388672,838.175659 
	C671.989868,831.701111 677.050781,825.340271 682.882874,819.999451 
	C693.846313,809.959473 706.571472,808.806885 719.995728,815.063049 
	C720.296936,815.203369 720.571167,815.400940 720.870239,815.546814 
	C749.612793,829.566589 755.307617,849.832581 737.832520,876.418579 
	C732.356750,884.749268 726.545959,892.859863 720.948730,900.983826 
	C729.541870,910.243103 731.586060,909.752258 743.764771,895.174133 
	C751.996460,900.862122 760.329041,906.619873 769.315979,912.829773 
	C754.197083,934.588928 739.591736,955.608948 724.561646,977.262939 
M696.751221,861.680908 
	C687.318176,861.157227 685.156982,868.692078 681.173950,875.231689 
	C688.648315,880.390381 695.690491,885.250671 703.027771,890.314697 
	C704.824219,887.943848 706.307190,886.169922 707.590454,884.261719 
	C713.587402,875.344482 712.613770,870.143555 703.753967,864.314209 
	C702.120911,863.239746 700.138245,862.696594 696.751221,861.680908 
z"/>
<path fill="#FAFBFB" opacity="1.000000" stroke="none" 
	d="
M1531.269165,678.996094 
	C1532.728149,676.329834 1533.810425,674.316040 1535.088501,671.938232 
	C1536.993164,672.397217 1538.528687,672.755554 1540.058105,673.137634 
	C1547.919434,675.101501 1549.490601,674.519592 1553.565674,667.034851 
	C1559.610229,655.932739 1565.532959,644.762390 1571.367920,633.548462 
	C1575.738892,625.147949 1575.397339,623.848328 1568.058350,617.621948 
	C1567.302490,616.980652 1566.282349,616.650818 1564.857300,615.897583 
	C1570.121338,606.037964 1574.885254,597.115112 1579.974609,587.582520 
	C1616.237305,606.863464 1651.662476,625.699158 1687.898315,644.965820 
	C1680.400146,659.095825 1673.307495,672.461792 1665.903564,686.414368 
	C1656.856812,681.606384 1648.726196,677.285278 1640.995972,673.177002 
	C1640.664673,671.871094 1640.219849,671.150879 1640.387329,670.625977 
	C1644.166138,658.782288 1643.840698,657.928040 1632.779175,651.940674 
	C1629.562744,650.199768 1626.306152,648.533020 1622.264038,646.409973 
	C1618.778564,652.829346 1615.366089,659.114197 1611.548218,666.145752 
	C1619.626709,670.598755 1627.100708,674.718506 1635.269531,679.221375 
	C1632.957764,683.671326 1630.870850,687.688354 1628.444336,692.359375 
	C1620.250977,688.151184 1612.664429,684.254639 1604.301514,679.959351 
	C1600.528687,687.066223 1596.861572,693.974060 1592.917847,701.403076 
	C1596.797119,703.567139 1599.911133,705.398743 1603.108521,707.070862 
	C1614.318848,712.933594 1615.943115,712.559753 1624.493896,701.593506 
	C1632.657959,705.896301 1641.029663,710.308411 1650.497314,715.298218 
	C1643.202148,729.054688 1636.128540,742.393372 1628.604614,756.581360 
	C1592.627808,737.467041 1557.202271,718.645569 1520.803467,699.307068 
	C1524.343384,692.409546 1527.618042,686.028992 1531.269165,678.996094 
z"/>
<path fill="#FAFBFC" opacity="1.000000" stroke="none" 
	d="
M751.966797,739.992188 
	C777.321716,717.937195 802.132874,696.334595 827.736938,674.041687 
	C838.189087,686.065125 848.123413,697.492859 858.490479,709.418396 
	C850.909790,716.063965 843.946472,722.168274 837.257690,728.031921 
	C836.040649,727.850159 835.226685,727.975769 834.793823,727.627625 
	C824.972717,719.729919 824.176270,719.722656 814.631531,727.933228 
	C811.862427,730.315186 809.145813,732.758118 805.439209,736.024231 
	C810.248718,741.533325 814.930054,746.895569 820.238831,752.976562 
	C827.208008,747.026062 833.697937,741.484741 840.825928,735.398682 
	C844.098022,739.111450 847.081970,742.497253 850.647766,746.543335 
	C843.951355,752.575684 837.625488,758.274170 830.547180,764.650513 
	C835.842102,770.783752 840.908813,776.652649 846.525757,783.158813 
	C850.848572,779.379761 854.688904,776.291077 858.217163,772.879578 
	C864.632568,766.676453 864.719238,765.215271 860.092773,757.405579 
	C859.444519,756.311340 858.800842,755.214478 857.822937,753.555420 
	C865.005676,747.292358 871.981262,741.209900 880.045349,734.178284 
	C890.240234,745.863708 900.198364,757.277771 910.753052,769.375610 
	C880.080017,796.086731 849.745605,822.502930 818.459106,849.748291 
	C811.511230,841.775757 804.845337,834.126831 798.021362,826.296448 
	C799.605225,824.202087 800.729553,822.622803 801.949036,821.120728 
	C805.153625,817.173889 805.195801,813.227722 801.873047,809.390625 
	C792.282898,798.315979 782.817749,787.124756 772.944214,776.307312 
	C768.409668,771.339111 766.723633,771.779846 756.058838,777.998230 
	C749.521179,770.522217 742.816589,762.855469 735.560547,754.558044 
	C741.070435,749.655640 746.246704,745.050110 751.966797,739.992188 
z"/>
<path fill="#FAFBFB" opacity="1.000000" stroke="none" 
	d="
M1773.976562,784.334351 
	C1779.596924,797.519043 1779.363525,809.607422 1772.028809,821.300842 
	C1762.124268,837.091309 1746.626099,843.039673 1728.979004,836.816406 
	C1709.692505,830.014893 1695.216309,817.216980 1685.468750,799.188660 
	C1683.900635,796.288574 1682.567871,793.261292 1680.852173,789.728760 
	C1678.987671,790.785461 1677.388550,791.691772 1674.967041,793.064087 
	C1668.556519,787.418701 1661.921143,781.575378 1654.542114,775.077087 
	C1659.929077,768.987305 1664.914673,763.325439 1669.929565,757.689575 
	C1674.965698,752.030090 1680.031006,746.396545 1685.621948,740.150391 
	C1692.869019,746.627136 1699.492554,752.546631 1705.611084,758.014709 
	C1704.832520,764.091248 1703.603882,769.300903 1703.625488,774.505432 
	C1703.660889,783.039307 1707.814819,789.830261 1714.739136,794.682861 
	C1718.020508,796.982422 1721.856079,798.907959 1725.755859,795.806519 
	C1729.672607,792.691772 1728.883179,788.522400 1726.942505,784.927795 
	C1723.314209,778.207825 1718.961548,771.881104 1715.274414,765.190125 
	C1711.599731,758.521729 1707.505005,751.893250 1705.145142,744.735901 
	C1701.329346,733.162109 1702.518188,721.781006 1709.986938,711.515259 
	C1719.509033,698.427673 1733.850952,692.847290 1749.522949,697.077637 
	C1769.290894,702.413452 1783.075439,715.396057 1793.085449,732.781372 
	C1794.886719,735.909729 1796.370850,739.220642 1798.225586,742.890747 
	C1800.130981,741.692749 1801.662842,740.729614 1804.062622,739.220764 
	C1810.513184,744.890198 1817.173706,750.744141 1824.588989,757.261536 
	C1814.359619,768.698303 1804.477905,779.746277 1793.954590,791.511597 
	C1786.769775,785.167297 1780.159668,779.330566 1774.090454,773.971436 
	C1774.850830,768.074585 1776.182861,763.158875 1775.959595,758.314819 
	C1775.533813,749.073242 1771.232910,741.631531 1762.538086,737.779663 
	C1760.294434,736.785706 1756.194458,737.031982 1754.528076,738.501221 
	C1752.807373,740.018494 1751.847534,744.115723 1752.618530,746.382202 
	C1754.197021,751.021484 1757.075195,755.238037 1759.566162,759.543030 
	C1764.224609,767.593933 1768.988647,775.583862 1773.976562,784.334351 
z"/>
<path fill="#FAFBFC" opacity="1.000000" stroke="none" 
	d="
M999.212891,672.969482 
	C1003.646118,681.255127 1009.746948,677.511902 1016.405518,676.079895 
	C1020.962646,684.956726 1025.575195,693.941650 1030.590942,703.711853 
	C1007.115601,715.660156 984.352966,727.245667 960.315247,739.480225 
	C955.546753,730.075989 950.966492,721.043091 946.464966,712.165283 
	C957.117737,702.411255 957.106567,702.416931 950.429382,689.286926 
	C943.215454,675.101624 936.025208,660.904297 928.867615,646.796875 
	C917.682617,650.894348 916.243225,653.963440 920.392517,663.783813 
	C921.528320,666.471985 922.764404,669.117798 924.274658,672.500122 
	C915.893188,676.736206 908.005371,680.722839 899.357117,685.093750 
	C891.643555,669.978760 884.304871,655.598389 876.500366,640.305298 
	C917.787354,619.294983 958.304260,598.676636 999.672302,577.625061 
	C1007.304810,592.579041 1014.662720,606.995117 1022.572998,622.493408 
	C1014.273865,626.723999 1006.441711,630.716492 997.956726,635.041809 
	C995.942139,631.825806 994.267883,629.088440 992.530640,626.391602 
	C987.074707,617.921570 984.062317,617.369629 974.137451,623.508118 
	C982.340332,639.729736 990.577393,656.018921 999.212891,672.969482 
z"/>
<path fill="#FAFBFC" opacity="1.000000" stroke="none" 
	d="
M1899.200195,941.030762 
	C1895.832886,935.996765 1892.896606,931.565552 1889.443970,926.355103 
	C1892.117920,924.264954 1894.640747,922.256226 1897.202026,920.297791 
	C1905.072510,914.279724 1906.001831,908.508728 1898.134155,901.450256 
	C1894.314697,903.980774 1890.230957,906.665039 1886.168945,909.381836 
	C1876.479126,915.862671 1866.791382,922.346863 1857.118286,928.852722 
	C1846.001465,936.329712 1846.008667,936.340393 1850.651367,949.972839 
	C1842.767822,955.336426 1834.632812,960.870972 1825.338623,967.194336 
	C1810.658569,945.382080 1796.283203,924.022644 1781.295410,901.753174 
	C1789.966309,895.909180 1798.147339,890.395386 1806.093140,885.039978 
	C1807.114136,885.284058 1807.887207,885.235779 1808.286865,885.598694 
	C1817.666626,894.117188 1817.669434,894.140442 1828.517212,886.874207 
	C1842.297974,877.643188 1856.060303,868.384583 1869.774414,859.175537 
	C1863.752441,848.524353 1860.975586,847.684326 1851.451538,853.157593 
	C1849.168457,854.469604 1846.950073,855.893921 1843.716553,857.868286 
	C1838.580322,850.429260 1833.560303,843.158752 1827.727539,834.711060 
	C1841.707520,825.343994 1855.308228,816.230957 1869.696533,806.590210 
	C1895.545654,845.103088 1920.901611,882.881348 1946.732056,921.366699 
	C1932.695923,930.770508 1919.214600,939.802551 1905.206055,949.187805 
	C1903.103149,946.338196 1901.367310,943.985901 1899.200195,941.030762 
z"/>
<path fill="#FAFBFC" opacity="1.000000" stroke="none" 
	d="
M1353.746582,1554.189453 
	C1355.609253,1561.547852 1354.960571,1568.020996 1354.694702,1574.708130 
	C1353.994629,1592.309814 1353.645508,1610.092896 1355.513794,1627.551514 
	C1356.324341,1635.124512 1362.316650,1642.504883 1367.030762,1649.217529 
	C1375.045166,1660.629639 1372.650879,1668.021362 1358.952148,1671.330933 
	C1357.659180,1671.643188 1356.264893,1671.640625 1355.036743,1672.101562 
	C1334.201660,1679.921509 1320.798340,1668.023560 1308.388306,1654.197388 
	C1306.393066,1651.974365 1305.325806,1648.100952 1305.364258,1645.009644 
	C1305.542603,1630.722168 1306.193359,1616.438599 1306.827637,1602.160278 
	C1307.049072,1597.175415 1307.966309,1592.215332 1308.070679,1587.233643 
	C1308.131226,1584.350952 1308.062744,1580.856445 1306.555298,1578.669189 
	C1302.679932,1573.046631 1303.573608,1567.326782 1304.616943,1561.373657 
	C1308.748779,1537.797241 1312.853638,1514.216309 1317.080933,1489.992432 
	C1327.252441,1491.133179 1336.223877,1495.031372 1339.895874,1505.484131 
	C1344.510742,1518.620605 1347.948853,1532.171875 1351.832275,1545.562500 
	C1352.572144,1548.113403 1353.020386,1550.749146 1353.746582,1554.189453 
z"/>
<path fill="#F9FAFB" opacity="1.000000" stroke="none" 
	d="
M988.359497,1494.569092 
	C972.090088,1520.510620 971.925110,1548.853516 972.405518,1577.213013 
	C972.551514,1585.825073 974.226562,1594.403198 975.002319,1603.014771 
	C975.932373,1613.339600 975.069336,1614.789307 965.126465,1618.391602 
	C958.282715,1620.871338 951.385437,1623.491211 944.284119,1624.896606 
	C936.101807,1626.515869 933.274902,1624.831665 930.113464,1617.425415 
	C926.361877,1608.636353 921.282715,1600.194336 922.046143,1589.983521 
	C922.598877,1582.589844 924.023865,1575.772461 928.338928,1569.352417 
	C934.807922,1559.728027 935.815369,1548.166138 937.771362,1537.071167 
	C940.308228,1522.681519 942.603577,1508.246460 944.780701,1493.797607 
	C945.629089,1488.167358 948.602112,1485.560913 954.001892,1483.734619 
	C972.242981,1477.564575 990.364563,1470.973877 1006.661743,1460.343506 
	C1007.360779,1459.887695 1008.536499,1460.162598 1010.417908,1460.033447 
	C1008.555298,1467.529541 1001.745728,1470.830688 998.481689,1476.527954 
	C995.177124,1482.296021 991.943542,1488.104736 988.359497,1494.569092 
z"/>
<path fill="#F1F3F5" opacity="1.000000" stroke="none" 
	d="
M529.188293,1184.763916 
	C533.337158,1185.336304 536.867310,1185.933350 540.150513,1187.180542 
	C543.091980,1188.297852 545.761414,1190.131226 550.775269,1192.858887 
	C549.169922,1189.009155 548.835754,1187.244141 547.835693,1186.025635 
	C546.157898,1183.981445 543.927917,1182.399780 542.158142,1180.419922 
	C537.783081,1175.525757 537.300781,1171.539062 540.297363,1166.901978 
	C542.831116,1162.981079 547.919800,1160.991699 552.532715,1162.118896 
	C557.394836,1163.306885 559.762817,1166.317749 560.174561,1172.439453 
	C560.419861,1176.086182 560.142700,1179.765381 560.262207,1183.424683 
	C560.307434,1184.809814 560.807129,1186.180176 563.031982,1187.705200 
	C564.381470,1182.811768 565.510132,1177.843628 567.134766,1173.043335 
	C569.290588,1166.673950 573.366882,1164.287720 579.262695,1165.464722 
	C583.915100,1166.393555 587.195374,1169.025391 588.269470,1173.707886 
	C589.335022,1178.353149 587.949951,1182.307129 583.750366,1184.910767 
	C579.423462,1187.593384 575.022766,1190.156860 570.654358,1192.772339 
	C571.000244,1193.528564 571.346191,1194.284668 571.692078,1195.040894 
	C576.351135,1193.770264 580.971497,1192.327759 585.677979,1191.267822 
	C593.525208,1189.500122 598.922729,1193.871338 598.810852,1201.665894 
	C598.677551,1210.959106 591.662170,1215.166382 582.926575,1211.242432 
	C578.928345,1209.446533 575.874512,1205.480957 569.901123,1206.862183 
	C573.233032,1210.268677 576.784485,1213.490112 579.848877,1217.122314 
	C585.333679,1223.623413 582.786743,1231.975464 574.751343,1234.589233 
	C568.010254,1236.781982 562.646851,1233.884155 561.332764,1226.864380 
	C560.667297,1223.309448 560.972412,1219.577271 560.775574,1215.928589 
	C560.644470,1213.500244 560.401978,1211.077759 560.209351,1208.652710 
	C559.528015,1208.575928 558.846680,1208.499146 558.165283,1208.422363 
	C556.900024,1213.400024 555.726013,1218.402954 554.348145,1223.349243 
	C552.278870,1230.777832 546.468323,1233.877075 539.995667,1231.059570 
	C536.060974,1229.346802 533.363708,1226.425781 533.010803,1222.054077 
	C532.672302,1217.859497 533.960449,1214.223633 537.811279,1211.786499 
	C541.104980,1209.702148 544.255859,1207.390991 547.439087,1205.136597 
	C547.585449,1205.032837 547.428284,1204.500488 547.385437,1203.599731 
	C544.282043,1201.636230 541.340149,1203.983643 538.475525,1204.720947 
	C530.073181,1206.883911 526.417236,1206.164429 523.517822,1201.227539 
	C520.314636,1195.773438 521.802246,1190.912476 529.188293,1184.763916 
M548.488892,1204.922119 
	C549.345947,1204.274658 550.203003,1203.627197 551.060120,1202.979858 
	C549.864380,1203.169678 548.668701,1203.359497 548.488892,1204.922119 
M550.000000,1191.000000 
	C550.400024,1191.266724 550.799988,1191.533325 551.200012,1191.800049 
	C551.133362,1191.200073 551.066650,1190.599976 550.000000,1191.000000 
M569.126160,1204.068359 
	C568.978210,1204.535767 568.830261,1205.003296 568.682312,1205.470703 
	C569.133545,1205.312866 569.584717,1205.155029 569.126160,1204.068359 
z"/>
<path fill="#F1F3F5" opacity="1.000000" stroke="none" 
	d="
M1998.474121,1183.110107 
	C1999.009399,1176.349854 2001.466675,1172.120728 2008.003662,1171.472534 
	C2012.766479,1171.000366 2016.529907,1172.706909 2019.057495,1176.743164 
	C2021.498047,1180.640625 2020.854980,1185.794189 2017.494507,1189.588501 
	C2015.957275,1191.324463 2014.043335,1192.722168 2012.446655,1194.411621 
	C2010.921997,1196.024658 2009.587891,1197.817627 2009.052002,1201.052979 
	C2011.247437,1200.199219 2013.503296,1199.471313 2015.621216,1198.455933 
	C2017.715698,1197.451782 2019.588867,1195.974121 2021.703735,1195.026611 
	C2026.887939,1192.703735 2031.310303,1193.606201 2034.304688,1197.370117 
	C2037.049194,1200.819824 2037.559326,1206.871216 2035.420166,1210.600342 
	C2033.205933,1214.460205 2028.102783,1216.561401 2023.302368,1215.250488 
	C2018.317505,1213.889282 2013.418579,1212.213013 2008.482056,1210.674561 
	C2008.107666,1211.435425 2007.733154,1212.196167 2007.358765,1212.956909 
	C2011.887329,1215.857788 2016.425781,1218.743408 2020.941406,1221.664185 
	C2024.629517,1224.049561 2026.522705,1227.390869 2025.774048,1231.823853 
	C2024.980103,1236.524902 2022.083618,1239.533691 2017.586182,1240.974976 
	C2011.764648,1242.840454 2006.625977,1240.068604 2004.529419,1233.549927 
	C2003.312988,1229.768188 2002.836670,1225.753906 2001.860718,1221.886475 
	C2001.509888,1220.496460 2000.671021,1219.229736 2000.054932,1217.906738 
	C1999.290894,1218.009399 1998.526733,1218.111938 1997.762695,1218.214600 
	C1997.762695,1223.623169 1998.251465,1229.086670 1997.651123,1234.427734 
	C1996.683472,1243.034424 1988.872192,1246.866455 1981.463745,1242.832764 
	C1974.911987,1239.265381 1973.731079,1231.881470 1978.977783,1226.064941 
	C1981.909912,1222.814209 1985.179443,1219.867920 1988.296875,1216.784424 
	C1987.746704,1216.036743 1987.196533,1215.289062 1986.646484,1214.541382 
	C1983.065430,1216.449951 1979.473877,1218.338867 1975.906494,1220.272339 
	C1972.131958,1222.317871 1968.405029,1222.860474 1964.629272,1220.245850 
	C1960.578735,1217.441162 1959.531860,1213.400757 1960.012329,1208.843628 
	C1960.737915,1201.963867 1966.418091,1198.555786 1974.087036,1200.520020 
	C1978.788696,1201.724243 1983.388184,1203.327637 1988.033691,1204.751709 
	C1988.367188,1204.052002 1988.700806,1203.352173 1989.034424,1202.652466 
	C1984.670288,1199.897217 1980.185303,1197.313477 1975.969727,1194.347290 
	C1969.343628,1189.684937 1968.661987,1182.579346 1974.104980,1177.440796 
	C1980.362183,1171.533569 1988.721313,1173.329224 1991.739014,1181.373413 
	C1992.783447,1184.157715 1993.234863,1187.162964 1993.984131,1190.060181 
	C1994.623047,1192.530273 1995.300781,1194.990356 1996.837769,1197.454590 
	C1999.288208,1193.142090 1999.131226,1188.581543 1998.474121,1183.110107 
M2008.030029,1201.029907 
	C2007.587280,1200.884399 2007.144531,1200.738892 2006.701904,1200.593262 
	C2006.854736,1201.046021 2007.007568,1201.498779 2008.030029,1201.029907 
M1989.000000,1214.000000 
	C1988.733276,1214.400024 1988.466675,1214.799927 1988.199951,1215.199951 
	C1988.799927,1215.133301 1989.400024,1215.066650 1989.000000,1214.000000 
z"/>
<path fill="#F7F9FA" opacity="1.000000" stroke="none" 
	d="
M1097.318970,643.015625 
	C1090.150146,644.956604 1083.747681,646.616150 1075.963867,648.633667 
	C1073.026855,637.942017 1070.187500,627.606018 1067.027710,616.103760 
	C1086.592163,610.806458 1105.313354,605.737488 1124.873047,600.441467 
	C1127.904053,611.524597 1130.675293,621.658020 1133.799561,633.081970 
	C1121.542725,636.394470 1109.813965,639.564270 1097.318970,643.015625 
z"/>
<path fill="#FDFDFD" opacity="1.000000" stroke="none" 
	d="
M974.923340,1435.326904 
	C974.749451,1435.343506 974.547668,1435.253540 974.706421,1435.255371 
	C975.066895,1435.347046 974.895508,1435.220337 974.923340,1435.326904 
z"/>
<path fill="#082F4F" opacity="1.000000" stroke="none" 
	d="
M1264.976440,579.435913 
	C1265.108765,588.900085 1265.108765,597.488953 1265.108765,607.035339 
	C1254.576050,603.717041 1244.084839,602.279541 1234.282715,610.838196 
	C1233.405396,607.734070 1232.330811,605.632935 1232.293579,603.513550 
	C1232.106567,592.880737 1231.728760,582.217529 1232.318115,571.615051 
	C1232.837769,562.267517 1236.973389,557.279480 1243.529541,555.839844 
	C1253.450684,553.661499 1259.526978,556.981262 1262.687866,566.839478 
	C1263.890747,570.591309 1264.153076,574.644653 1264.976440,579.435913 
z"/>
<path fill="#113855" opacity="1.000000" stroke="none" 
	d="
M1241.952393,615.344421 
	C1250.756348,612.314453 1256.711670,615.665649 1261.801636,621.619507 
	C1256.989624,628.610046 1248.509033,630.937683 1242.133789,627.249939 
	C1237.811279,624.749573 1237.609009,621.982727 1241.952393,615.344421 
z"/>
<path fill="#0E3553" opacity="1.000000" stroke="none" 
	d="
M697.534058,861.794556 
	C700.138245,862.696594 702.120911,863.239746 703.753967,864.314209 
	C712.613770,870.143555 713.587402,875.344482 707.590454,884.261719 
	C706.307190,886.169922 704.824219,887.943848 703.027771,890.314697 
	C695.690491,885.250671 688.648315,880.390381 681.173950,875.231689 
	C685.156982,868.692078 687.318176,861.157227 697.534058,861.794556 
z"/>
<path fill="#022B4A" opacity="1.000000" stroke="none" 
	d="
M547.980957,1204.235840 
	C548.668701,1203.359497 549.864380,1203.169678 551.060059,1202.979858 
	C550.203003,1203.627197 549.345947,1204.274658 547.980957,1204.235840 
z"/>
<path fill="#022B4A" opacity="1.000000" stroke="none" 
	d="
M550.500000,1190.500000 
	C551.066650,1190.599976 551.133362,1191.200073 551.200012,1191.800049 
	C550.799988,1191.533325 550.400024,1191.266724 550.500000,1190.500000 
z"/>
<path fill="#022B4A" opacity="1.000000" stroke="none" 
	d="
M569.581055,1204.532715 
	C569.584717,1205.155029 569.133545,1205.312866 568.682251,1205.470703 
	C568.830261,1205.003296 568.978210,1204.535767 569.581055,1204.532715 
z"/>
<path fill="#022B4A" opacity="1.000000" stroke="none" 
	d="
M2007.595215,1201.490723 
	C2007.007568,1201.498779 2006.854736,1201.046021 2006.701904,1200.593262 
	C2007.144531,1200.738892 2007.587280,1200.884399 2007.595215,1201.490723 
z"/>
<path fill="#022B4A" opacity="1.000000" stroke="none" 
	d="
M1989.500000,1214.500000 
	C1989.400024,1215.066650 1988.799927,1215.133301 1988.199951,1215.199951 
	C1988.466675,1214.799927 1988.733276,1214.400024 1989.500000,1214.500000 
z"/>
</svg>